<svg xmlns="http://www.w3.org/2000/svg" viewBox="0 0 240 240"><rect width="240" height="240" rx="28" fill="#f4efff"/><circle cx="121" cy="50" r="22" fill="#f6a56f"/><path d="M96 78h48l24 71H74z" fill="#c95f7d"/><path d="M96 86L71 36M145 85l34-45" stroke="#f6a56f" stroke-width="14" stroke-linecap="round"/><path d="M106 149L72 199M134 149l42 48" stroke="#e0a72e" stroke-width="18" stroke-linecap="round"/><path d="M57 200h46M151 200h44" stroke="#f6a56f" stroke-width="12" stroke-linecap="round"/><path d="M92 50c17-30 58-17 57 20-17-14-37-7-57-20z" fill="#2a2320"/><path d="M49 72c12-13 26-13 39 0M166 75c13-12 26-12 39 0" stroke="#88cdbd" stroke-width="7" stroke-linecap="round" fill="none"/></svg>
